<svg width="82" height="82" viewBox="0 0 82 82" fill="none" xmlns="http://www.w3.org/2000/svg">
<mask id="path-1-outside-1_31_103" maskUnits="userSpaceOnUse" x="0" y="0" width="82" height="82" fill="black">
<rect fill="white" width="82" height="82"/>
<path d="M73 9H81V73H73V81H9V73H1V9H9V1H73V9Z"/>
<path d="M68 13H75V69H68V76H12V69H5V13H12V6H68V13Z"/>
<path d="M18.968 46.608V43.888H16.072V42.288H18.968V39.216H20.6V42.288H23.512V43.888H20.6V46.608H18.968Z"/>
<path d="M25.5537 48.192V37.904H31.5218V39.36H32.9938V40.96H31.3617V39.52H27.1698V42.256H30.0818V43.84H27.1698V48.192H25.5537Z"/>
<path d="M34.4444 48.192V46.592H35.9004V39.52H34.4444V37.904H38.9724V39.52H37.5004V46.592H38.9724V48.192H34.4444Z"/>
<path d="M43.8091 48.192V46.752H42.3691V43.84H40.9131V37.904H42.5291V43.68H43.9691V46.592H45.2811V43.68H46.7211V37.904H48.3531V43.84H46.8811V46.752H45.4411V48.192H43.8091Z"/>
<path d="M51.7441 48.192V46.752H50.2881V39.36H51.7441V37.904H56.2561V39.36H57.7281V40.96H56.0961V39.52H51.9041V42.256H54.8161V43.84H51.9041V46.592H56.0961V45.136H57.7281V46.752H56.2561V48.192H51.7441Z"/>
</mask>
<path d="M73 9H81V73H73V81H9V73H1V9H9V1H73V9Z" fill="#E79027"/>
<path d="M68 13H75V69H68V76H12V69H5V13H12V6H68V13Z" fill="#F8C733"/>
<path d="M18.968 46.608V43.888H16.072V42.288H18.968V39.216H20.6V42.288H23.512V43.888H20.6V46.608H18.968Z" fill="white"/>
<path d="M25.5537 48.192V37.904H31.5218V39.36H32.9938V40.96H31.3617V39.52H27.1698V42.256H30.0818V43.84H27.1698V48.192H25.5537Z" fill="white"/>
<path d="M34.4444 48.192V46.592H35.9004V39.52H34.4444V37.904H38.9724V39.52H37.5004V46.592H38.9724V48.192H34.4444Z" fill="white"/>
<path d="M43.8091 48.192V46.752H42.3691V43.84H40.9131V37.904H42.5291V43.68H43.9691V46.592H45.2811V43.68H46.7211V37.904H48.3531V43.84H46.8811V46.752H45.4411V48.192H43.8091Z" fill="white"/>
<path d="M51.7441 48.192V46.752H50.2881V39.36H51.7441V37.904H56.2561V39.36H57.7281V40.96H56.0961V39.52H51.9041V42.256H54.8161V43.84H51.9041V46.592H56.0961V45.136H57.7281V46.752H56.2561V48.192H51.7441Z" fill="white"/>
<path d="M73 9H81V73H73V81H9V73H1V9H9V1H73V9Z" stroke="black" stroke-opacity="0.12" stroke-width="2" mask="url(#path-1-outside-1_31_103)"/>
<path d="M68 13H75V69H68V76H12V69H5V13H12V6H68V13Z" stroke="black" stroke-opacity="0.12" stroke-width="2" mask="url(#path-1-outside-1_31_103)"/>
<path d="M18.968 46.608V43.888H16.072V42.288H18.968V39.216H20.6V42.288H23.512V43.888H20.6V46.608H18.968Z" stroke="black" stroke-opacity="0.12" stroke-width="2" mask="url(#path-1-outside-1_31_103)"/>
<path d="M25.5537 48.192V37.904H31.5218V39.36H32.9938V40.96H31.3617V39.52H27.1698V42.256H30.0818V43.84H27.1698V48.192H25.5537Z" stroke="black" stroke-opacity="0.12" stroke-width="2" mask="url(#path-1-outside-1_31_103)"/>
<path d="M34.4444 48.192V46.592H35.9004V39.52H34.4444V37.904H38.9724V39.52H37.5004V46.592H38.9724V48.192H34.4444Z" stroke="black" stroke-opacity="0.12" stroke-width="2" mask="url(#path-1-outside-1_31_103)"/>
<path d="M43.8091 48.192V46.752H42.3691V43.84H40.9131V37.904H42.5291V43.68H43.9691V46.592H45.2811V43.68H46.7211V37.904H48.3531V43.84H46.8811V46.752H45.4411V48.192H43.8091Z" stroke="black" stroke-opacity="0.12" stroke-width="2" mask="url(#path-1-outside-1_31_103)"/>
<path d="M51.7441 48.192V46.752H50.2881V39.36H51.7441V37.904H56.2561V39.36H57.7281V40.96H56.0961V39.52H51.9041V42.256H54.8161V43.84H51.9041V46.592H56.0961V45.136H57.7281V46.752H56.2561V48.192H51.7441Z" stroke="black" stroke-opacity="0.12" stroke-width="2" mask="url(#path-1-outside-1_31_103)"/>
</svg>
