<svg width="82" height="82" viewBox="0 0 82 82" fill="none" xmlns="http://www.w3.org/2000/svg">
<mask id="path-1-outside-1_34_105" maskUnits="userSpaceOnUse" x="0" y="0" width="82" height="82" fill="black">
<rect fill="white" width="82" height="82"/>
<path d="M73 9H81V73H73V81H9V73H1V9H9V1H73V9Z"/>
<path d="M68 13H75V69H68V76H12V69H5V13H12V6H68V13Z"/>
<path d="M17.96 45.192V36.36H19.416V34.904H23.928V36.36H25.4V40.84H23.928V42.296H23.224V43.592H24.664V45.192H23.064V43.752H21.592V42.296H19.576V45.192H17.96ZM19.576 40.68H23.768V36.52H19.576V40.68Z"/>
<path d="M28.791 45.192V43.752H27.335V36.36H28.791V34.904H33.303V36.36H34.775V37.96H33.143V36.52H28.951V39.256H31.863V40.84H28.951V43.592H33.143V42.136H34.775V43.752H33.303V45.192H28.791Z"/>
<path d="M38.166 45.192V43.752H36.71V42.136H38.326V43.592H42.518V40.84H38.166V39.4H36.71V36.36H38.166V34.904H42.678V36.36H44.15V37.96H42.518V36.52H38.326V39.256H42.678V40.68H44.15V43.752H42.678V45.192H38.166Z"/>
<path d="M47.541 45.192V43.752H46.085V36.36H47.541V34.904H52.053V36.36H53.525V37.96H51.893V36.52H47.701V39.256H50.613V40.84H47.701V43.592H51.893V42.136H53.525V43.752H52.053V45.192H47.541Z"/>
<path d="M58.356 45.192V36.52H57.076V37.96H55.46V36.36H56.916V34.904H61.428V36.36H62.9V37.96H61.268V36.52H59.988V45.192H58.356Z"/>
</mask>
<path d="M73 9H81V73H73V81H9V73H1V9H9V1H73V9Z" fill="#E79027"/>
<path d="M68 13H75V69H68V76H12V69H5V13H12V6H68V13Z" fill="#F8C733"/>
<path d="M17.96 45.192V36.36H19.416V34.904H23.928V36.36H25.4V40.84H23.928V42.296H23.224V43.592H24.664V45.192H23.064V43.752H21.592V42.296H19.576V45.192H17.96ZM19.576 40.68H23.768V36.52H19.576V40.68Z" fill="white"/>
<path d="M28.791 45.192V43.752H27.335V36.36H28.791V34.904H33.303V36.36H34.775V37.96H33.143V36.52H28.951V39.256H31.863V40.84H28.951V43.592H33.143V42.136H34.775V43.752H33.303V45.192H28.791Z" fill="white"/>
<path d="M38.166 45.192V43.752H36.71V42.136H38.326V43.592H42.518V40.84H38.166V39.4H36.71V36.36H38.166V34.904H42.678V36.36H44.15V37.96H42.518V36.52H38.326V39.256H42.678V40.68H44.15V43.752H42.678V45.192H38.166Z" fill="white"/>
<path d="M47.541 45.192V43.752H46.085V36.36H47.541V34.904H52.053V36.36H53.525V37.96H51.893V36.52H47.701V39.256H50.613V40.84H47.701V43.592H51.893V42.136H53.525V43.752H52.053V45.192H47.541Z" fill="white"/>
<path d="M58.356 45.192V36.52H57.076V37.96H55.46V36.36H56.916V34.904H61.428V36.36H62.9V37.96H61.268V36.52H59.988V45.192H58.356Z" fill="white"/>
<path d="M73 9H81V73H73V81H9V73H1V9H9V1H73V9Z" stroke="black" stroke-opacity="0.12" stroke-width="2" mask="url(#path-1-outside-1_34_105)"/>
<path d="M68 13H75V69H68V76H12V69H5V13H12V6H68V13Z" stroke="black" stroke-opacity="0.12" stroke-width="2" mask="url(#path-1-outside-1_34_105)"/>
<path d="M17.96 45.192V36.36H19.416V34.904H23.928V36.36H25.4V40.84H23.928V42.296H23.224V43.592H24.664V45.192H23.064V43.752H21.592V42.296H19.576V45.192H17.96ZM19.576 40.68H23.768V36.52H19.576V40.68Z" stroke="black" stroke-opacity="0.12" stroke-width="2" mask="url(#path-1-outside-1_34_105)"/>
<path d="M28.791 45.192V43.752H27.335V36.36H28.791V34.904H33.303V36.36H34.775V37.96H33.143V36.52H28.951V39.256H31.863V40.84H28.951V43.592H33.143V42.136H34.775V43.752H33.303V45.192H28.791Z" stroke="black" stroke-opacity="0.12" stroke-width="2" mask="url(#path-1-outside-1_34_105)"/>
<path d="M38.166 45.192V43.752H36.71V42.136H38.326V43.592H42.518V40.84H38.166V39.4H36.71V36.36H38.166V34.904H42.678V36.36H44.15V37.96H42.518V36.52H38.326V39.256H42.678V40.68H44.15V43.752H42.678V45.192H38.166Z" stroke="black" stroke-opacity="0.12" stroke-width="2" mask="url(#path-1-outside-1_34_105)"/>
<path d="M47.541 45.192V43.752H46.085V36.36H47.541V34.904H52.053V36.36H53.525V37.96H51.893V36.52H47.701V39.256H50.613V40.84H47.701V43.592H51.893V42.136H53.525V43.752H52.053V45.192H47.541Z" stroke="black" stroke-opacity="0.12" stroke-width="2" mask="url(#path-1-outside-1_34_105)"/>
<path d="M58.356 45.192V36.52H57.076V37.96H55.46V36.36H56.916V34.904H61.428V36.36H62.9V37.96H61.268V36.52H59.988V45.192H58.356Z" stroke="black" stroke-opacity="0.12" stroke-width="2" mask="url(#path-1-outside-1_34_105)"/>
</svg>
