<svg width="82" height="82" viewBox="0 0 82 82" fill="none" xmlns="http://www.w3.org/2000/svg">
<mask id="path-1-outside-1_31_100" maskUnits="userSpaceOnUse" x="0" y="0" width="82" height="82" fill="black">
<rect fill="white" width="82" height="82"/>
<path d="M73 9H81V73H73V81H9V73H1V9H9V1H73V9Z"/>
<path d="M68 13H75V69H68V76H12V69H5V13H12V6H68V13Z"/>
<path d="M25.6191 48.192V46.752H24.1631V45.136H25.7791V46.592H29.9711V43.84H25.6191V42.4H24.1631V39.36H25.6191V37.904H30.1311V39.36H31.6031V40.96H29.9711V39.52H25.7791V42.256H30.1311V43.68H31.6031V46.752H30.1311V48.192H25.6191Z"/>
<path d="M36.1216 48.192V39.52H34.8416V40.96H33.2256V39.36H34.6816V37.904H39.1936V39.36H40.6656V40.96H39.0336V39.52H37.7536V48.192H36.1216Z"/>
<path d="M43.5723 48.192V46.752H42.1162V39.36H43.5723V37.904H48.0843V39.36H49.5563V46.752H48.0843V48.192H43.5723ZM43.7323 46.592H47.9243V39.52H43.7323V46.592Z"/>
<path d="M51.4912 48.192V39.36H52.9473V37.904H57.4593V39.36H58.9313V43.84H57.4593V45.296H53.1073V48.192H51.4912ZM53.1073 43.68H57.2993V39.52H53.1073V43.68Z"/>
</mask>
<path d="M73 9H81V73H73V81H9V73H1V9H9V1H73V9Z" fill="#E79027"/>
<path d="M68 13H75V69H68V76H12V69H5V13H12V6H68V13Z" fill="#F8C733"/>
<path d="M25.6191 48.192V46.752H24.1631V45.136H25.7791V46.592H29.9711V43.84H25.6191V42.4H24.1631V39.36H25.6191V37.904H30.1311V39.36H31.6031V40.96H29.9711V39.52H25.7791V42.256H30.1311V43.68H31.6031V46.752H30.1311V48.192H25.6191Z" fill="white"/>
<path d="M36.1216 48.192V39.52H34.8416V40.96H33.2256V39.36H34.6816V37.904H39.1936V39.36H40.6656V40.96H39.0336V39.52H37.7536V48.192H36.1216Z" fill="white"/>
<path d="M43.5723 48.192V46.752H42.1162V39.36H43.5723V37.904H48.0843V39.36H49.5563V46.752H48.0843V48.192H43.5723ZM43.7323 46.592H47.9243V39.52H43.7323V46.592Z" fill="white"/>
<path d="M51.4912 48.192V39.36H52.9473V37.904H57.4593V39.36H58.9313V43.84H57.4593V45.296H53.1073V48.192H51.4912ZM53.1073 43.68H57.2993V39.52H53.1073V43.68Z" fill="white"/>
<path d="M73 9H81V73H73V81H9V73H1V9H9V1H73V9Z" stroke="black" stroke-opacity="0.12" stroke-width="2" mask="url(#path-1-outside-1_31_100)"/>
<path d="M68 13H75V69H68V76H12V69H5V13H12V6H68V13Z" stroke="black" stroke-opacity="0.12" stroke-width="2" mask="url(#path-1-outside-1_31_100)"/>
<path d="M25.6191 48.192V46.752H24.1631V45.136H25.7791V46.592H29.9711V43.84H25.6191V42.4H24.1631V39.36H25.6191V37.904H30.1311V39.36H31.6031V40.96H29.9711V39.52H25.7791V42.256H30.1311V43.68H31.6031V46.752H30.1311V48.192H25.6191Z" stroke="black" stroke-opacity="0.12" stroke-width="2" mask="url(#path-1-outside-1_31_100)"/>
<path d="M36.1216 48.192V39.52H34.8416V40.96H33.2256V39.36H34.6816V37.904H39.1936V39.36H40.6656V40.96H39.0336V39.52H37.7536V48.192H36.1216Z" stroke="black" stroke-opacity="0.12" stroke-width="2" mask="url(#path-1-outside-1_31_100)"/>
<path d="M43.5723 48.192V46.752H42.1162V39.36H43.5723V37.904H48.0843V39.36H49.5563V46.752H48.0843V48.192H43.5723ZM43.7323 46.592H47.9243V39.52H43.7323V46.592Z" stroke="black" stroke-opacity="0.12" stroke-width="2" mask="url(#path-1-outside-1_31_100)"/>
<path d="M51.4912 48.192V39.36H52.9473V37.904H57.4593V39.36H58.9313V43.84H57.4593V45.296H53.1073V48.192H51.4912ZM53.1073 43.68H57.2993V39.52H53.1073V43.68Z" stroke="black" stroke-opacity="0.12" stroke-width="2" mask="url(#path-1-outside-1_31_100)"/>
</svg>
