<svg width="82" height="82" viewBox="0 0 82 82" fill="none" xmlns="http://www.w3.org/2000/svg">
<path d="M73 9H81V73H73V81H9V73H1V9H9V1H73V9Z" fill="#E79027"/>
<path d="M68 13H75V69H68V76H12V69H5V13H12V6H68V13Z" fill="#F8C733"/>
<path d="M18.5711 41.8V40.184H23.0831V41.8H18.5711Z" fill="white"/>
<path d="M24.4912 45.192V34.904H30.4593V36.36H31.9313V37.96H30.2992V36.52H26.1073V39.256H29.0193V40.84H26.1073V45.192H24.4912Z" fill="white"/>
<path d="M33.3819 45.192V43.592H34.8379V36.52H33.3819V34.904H37.9099V36.52H36.4379V43.592H37.9099V45.192H33.3819Z" fill="white"/>
<path d="M42.7466 45.192V43.752H41.3066V40.84H39.8506V34.904H41.4666V40.68H42.9066V43.592H44.2186V40.68H45.6586V34.904H47.2906V40.84H45.8186V43.752H44.3786V45.192H42.7466Z" fill="white"/>
<path d="M50.6816 45.192V43.752H49.2256V36.36H50.6816V34.904H55.1936V36.36H56.6656V37.96H55.0336V36.52H50.8416V39.256H53.7536V40.84H50.8416V43.592H55.0336V42.136H56.6656V43.752H55.1936V45.192H50.6816Z" fill="white"/>
<path d="M73.5 0.5V8.5H81.5V73.5H73.5V81.5H8.5V73.5H0.5V8.5H8.5V0.5H73.5Z" stroke="black" stroke-opacity="0.12"/>
</svg>
