<svg width="82" height="82" viewBox="0 0 82 82" fill="none" xmlns="http://www.w3.org/2000/svg">
<mask id="path-1-outside-1_30_98" maskUnits="userSpaceOnUse" x="0" y="0" width="82" height="82" fill="black">
<rect fill="white" width="82" height="82"/>
<path d="M73 9H81V73H73V81H9V73H1V9H9V1H73V9Z"/>
<path d="M68 13H75V69H68V76H12V69H5V13H12V6H68V13Z"/>
<path d="M20.416 46.192V44.752H18.96V43.136H20.576V44.592H24.768V41.84H20.416V40.4H18.96V37.36H20.416V35.904H24.928V37.36H26.4V38.96H24.768V37.52H20.576V40.256H24.928V41.68H26.4V44.752H24.928V46.192H20.416Z"/>
<path d="M30.9185 46.192V37.52H29.6385V38.96H28.0225V37.36H29.4785V35.904H33.9905V37.36H35.4625V38.96H33.8305V37.52H32.5505V46.192H30.9185Z"/>
<path d="M36.7569 46.192V38.8H38.2129V37.36H39.6529V35.904H41.2849V37.36H42.7249V38.8H44.1969V46.192H42.5649V43.296H38.3729V46.192H36.7569ZM38.3729 41.68H42.5649V38.96H41.1249V37.52H39.8129V38.96H38.3729V41.68Z"/>
<path d="M46.1319 46.192V37.36H47.5879V35.904H52.0999V37.36H53.5719V41.84H52.0999V43.296H51.3959V44.592H52.8359V46.192H51.2359V44.752H49.7639V43.296H47.7479V46.192H46.1319ZM47.7479 41.68H51.9399V37.52H47.7479V41.68Z"/>
<path d="M58.4029 46.192V37.52H57.1229V38.96H55.5069V37.36H56.9629V35.904H61.4749V37.36H62.9469V38.96H61.3149V37.52H60.0349V46.192H58.4029Z"/>
</mask>
<path d="M73 9H81V73H73V81H9V73H1V9H9V1H73V9Z" fill="#E79027"/>
<path d="M68 13H75V69H68V76H12V69H5V13H12V6H68V13Z" fill="#F8C733"/>
<path d="M20.416 46.192V44.752H18.96V43.136H20.576V44.592H24.768V41.84H20.416V40.4H18.96V37.36H20.416V35.904H24.928V37.36H26.4V38.96H24.768V37.52H20.576V40.256H24.928V41.68H26.4V44.752H24.928V46.192H20.416Z" fill="white"/>
<path d="M30.9185 46.192V37.52H29.6385V38.96H28.0225V37.36H29.4785V35.904H33.9905V37.36H35.4625V38.96H33.8305V37.52H32.5505V46.192H30.9185Z" fill="white"/>
<path d="M36.7569 46.192V38.8H38.2129V37.36H39.6529V35.904H41.2849V37.36H42.7249V38.8H44.1969V46.192H42.5649V43.296H38.3729V46.192H36.7569ZM38.3729 41.68H42.5649V38.96H41.1249V37.52H39.8129V38.96H38.3729V41.68Z" fill="white"/>
<path d="M46.1319 46.192V37.36H47.5879V35.904H52.0999V37.36H53.5719V41.84H52.0999V43.296H51.3959V44.592H52.8359V46.192H51.2359V44.752H49.7639V43.296H47.7479V46.192H46.1319ZM47.7479 41.68H51.9399V37.52H47.7479V41.68Z" fill="white"/>
<path d="M58.4029 46.192V37.52H57.1229V38.96H55.5069V37.36H56.9629V35.904H61.4749V37.36H62.9469V38.96H61.3149V37.52H60.0349V46.192H58.4029Z" fill="white"/>
<path d="M73 9H81V73H73V81H9V73H1V9H9V1H73V9Z" stroke="black" stroke-opacity="0.12" stroke-width="2" mask="url(#path-1-outside-1_30_98)"/>
<path d="M68 13H75V69H68V76H12V69H5V13H12V6H68V13Z" stroke="black" stroke-opacity="0.12" stroke-width="2" mask="url(#path-1-outside-1_30_98)"/>
<path d="M20.416 46.192V44.752H18.96V43.136H20.576V44.592H24.768V41.84H20.416V40.4H18.96V37.36H20.416V35.904H24.928V37.36H26.4V38.96H24.768V37.52H20.576V40.256H24.928V41.68H26.4V44.752H24.928V46.192H20.416Z" stroke="black" stroke-opacity="0.12" stroke-width="2" mask="url(#path-1-outside-1_30_98)"/>
<path d="M30.9185 46.192V37.52H29.6385V38.96H28.0225V37.36H29.4785V35.904H33.9905V37.36H35.4625V38.96H33.8305V37.52H32.5505V46.192H30.9185Z" stroke="black" stroke-opacity="0.12" stroke-width="2" mask="url(#path-1-outside-1_30_98)"/>
<path d="M36.7569 46.192V38.8H38.2129V37.36H39.6529V35.904H41.2849V37.36H42.7249V38.8H44.1969V46.192H42.5649V43.296H38.3729V46.192H36.7569ZM38.3729 41.68H42.5649V38.96H41.1249V37.52H39.8129V38.96H38.3729V41.68Z" stroke="black" stroke-opacity="0.12" stroke-width="2" mask="url(#path-1-outside-1_30_98)"/>
<path d="M46.1319 46.192V37.36H47.5879V35.904H52.0999V37.36H53.5719V41.84H52.0999V43.296H51.3959V44.592H52.8359V46.192H51.2359V44.752H49.7639V43.296H47.7479V46.192H46.1319ZM47.7479 41.68H51.9399V37.52H47.7479V41.68Z" stroke="black" stroke-opacity="0.12" stroke-width="2" mask="url(#path-1-outside-1_30_98)"/>
<path d="M58.4029 46.192V37.52H57.1229V38.96H55.5069V37.36H56.9629V35.904H61.4749V37.36H62.9469V38.96H61.3149V37.52H60.0349V46.192H58.4029Z" stroke="black" stroke-opacity="0.12" stroke-width="2" mask="url(#path-1-outside-1_30_98)"/>
</svg>
